<svg width="11" height="9" viewBox="0 0 11 9" xmlns="http://www.w3.org/2000/svg"><title>path22</title><path d="M2.02 7.969a.954.954 0 0 1-.568-.54 1.228 1.228 0 0 1-.086-.481V5.375a.77.77 0 0 0-.057-.322.561.561 0 0 0-.14-.193.439.439 0 0 0-.183-.095.791.791 0 0 0-.184-.025v-.724a.791.791 0 0 0 .184-.025.494.494 0 0 0 .184-.086.49.49 0 0 0 .139-.178.647.647 0 0 0 .057-.288V1.81c0-.187.028-.348.086-.482a.954.954 0 0 1 .568-.54c.125-.044.256-.066.392-.066h.596v.692h-.45c-.157 0-.257.052-.297.157a.918.918 0 0 0-.062.337v1.549c0 .159-.03.295-.09.407a.949.949 0 0 1-.71.507v.016c.065.006.144.024.237.054.092.03.18.08.261.152a.921.921 0 0 1 .212.288c.06.121.09.278.09.47v1.499c0 .12.02.233.062.337.04.105.14.157.298.157h.45v.692h-.597c-.136 0-.267-.022-.392-.066m5.07-4.186a4.248 4.248 0 0 1-.674.146h.007v4.233c.378-.037.658-.239.658-.718 0-.482.01-2.717.01-3.516l-.001-.145m-.183-.625c-.217-.457-.474-.997-.772-1.59 0 0-.172.062-.336.062-.163-.001-.32-.065-.32-.065-.296.59-.571 1.128-.79 1.586-.092.182-.14.308-.164.411.813.291 1.724.282 2.538-.004a1.702 1.702 0 0 0-.156-.4m-2.41 4.286c0 .512.284.686.68.721V3.928a4.51 4.51 0 0 1-.676-.144l.001.143-.004 3.517m1.756.748V3.948c-.301.03-.606.03-.907 0v4.246c.291.049.616.05.907-.002m-.455.468c-.88 0-1.753-.241-1.753-1.015V3.89c0-.289-.043-.444.254-.989L5.425.677c.261-.515.284-.576.38-.576.097 0 .101.05.37.58l1.128 2.228c.258.475.247.673.249.982v3.754c0 .777-.88 1.016-1.753 1.015m4.815-3.894a.439.439 0 0 0-.18.095.558.558 0 0 0-.138.193.77.77 0 0 0-.057.321V6.95c0 .186-.029.347-.086.481a.955.955 0 0 1-.567.54 1.177 1.177 0 0 1-.392.066h-.596v-.692h.449c.158 0 .257-.052.298-.157a.919.919 0 0 0 .06-.337v-1.5c0-.191.03-.348.09-.469.06-.12.131-.217.213-.288a.75.75 0 0 1 .261-.152c.093-.03.172-.048.237-.054v-.016a.946.946 0 0 1-.71-.507.856.856 0 0 1-.09-.408V1.908c0-.12-.02-.233-.061-.338-.041-.104-.14-.156-.298-.156h-.45V.722h.597c.136 0 .266.022.392.066a.955.955 0 0 1 .567.54c.057.134.086.295.086.481v1.63c0 .116.019.212.057.29a.487.487 0 0 0 .139.176c.054.041.114.07.18.087a.768.768 0 0 0 .187.024v.725a.768.768 0 0 0-.188.025" fill="#774701" fill-rule="evenodd"/></svg>