<svg xmlns="http://www.w3.org/2000/svg" width="50" height="42" viewBox="0 0 50 42"><g class="superpencil" fill="none" fill-rule="evenodd"><path class="lines" fill="none" stroke="#000" stroke-width="2" stroke-linecap="round" stroke-linejoin="round" d="M25 41c6.2 0 8-4 8-6V17.2c0-1.5-.4-3-1-3.8L25 1s-6.7 11.4-7 12.4c-.6 1-1 2-1 3.8V35c0 2 1.8 6 8 6zm-8-25c0 2 1.8 6 8 6s8-4 8-6M10 4H8C6.5 4 4 5.5 4 8v8c0 4-3 4-3 4v1s3 0 3 4v8c0 3 2.5 4 4 4h2M40 4h2c1.5 0 4 1.5 4 4v8c0 4 3 4 3 4v1s-3 0-3 4v8c0 3-2.5 4-4 4h-2M22 22.5v18-18zm6 0v18-18z"/><path class="tip" fill="#000" d="M25 2l3 5s-1 1.5-3 1.5S22 7 22 7l3-5z"/></g></svg>
